<svg width="24" height="25" viewBox="0 0 24 25" fill="none" xmlns="http://www.w3.org/2000/svg">
<path d="M8.29 20.7494C9.81204 20.7653 11.3223 20.4812 12.7345 19.9133C14.1468 19.3454 15.4333 18.505 16.5207 17.4398C17.6081 16.3747 18.475 15.1059 19.072 13.7057C19.669 12.3055 19.9843 10.8015 20 9.27944V8.54944C20.7874 7.96329 21.4645 7.24212 22 6.41944C21.2495 6.75073 20.4543 6.96974 19.64 7.06944C20.4964 6.55469 21.1389 5.74892 21.45 4.79944C20.6437 5.27986 19.7609 5.61812 18.84 5.79944C18.221 5.13899 17.4013 4.70136 16.5081 4.55448C15.6149 4.4076 14.6983 4.55968 13.9004 4.98712C13.1025 5.41457 12.468 6.09346 12.0955 6.91841C11.7229 7.74336 11.6331 8.66823 11.84 9.54944C10.2094 9.46204 8.61523 9.0343 7.15992 8.29373C5.70461 7.55316 4.42043 6.51616 3.39 5.24944C2.86539 6.15316 2.7047 7.22278 2.94062 8.24075C3.17653 9.25872 3.79134 10.1486 4.66 10.7294C4.0072 10.7082 3.36915 10.5299 2.8 10.2094C2.80628 11.1524 3.13665 12.0646 3.73567 12.7929C4.3347 13.5212 5.16595 14.0213 6.09 14.2094C5.48658 14.3725 4.85402 14.3964 4.24 14.2794C4.5035 15.0933 5.01382 15.805 5.70014 16.3157C6.38645 16.8264 7.21472 17.1108 8.07 17.1294C6.63388 18.2935 4.84842 18.9415 3 18.9694C2.66574 18.9705 2.33174 18.9505 2 18.9094C3.87834 20.11 6.06078 20.7484 8.29 20.7494Z" fill="#DBDBDB"/>
</svg>
