<svg width="61" height="64" viewBox="0 0 61 64" fill="none" xmlns="http://www.w3.org/2000/svg">
<path d="M30.2133 0C31.3511 0 32.3467 0.071111 33.2 0.213333C34.1956 0.355555 35.12 0.568888 35.9733 0.853333C36.9689 1.13778 37.8933 1.49333 38.7467 1.92C39.6 2.34666 40.5244 2.84444 41.52 3.41333C42.9422 4.26667 44.4356 5.04889 46 5.76C48.9867 6.89778 52.1156 7.60889 55.3867 7.89333C57.0933 8.03556 58.7289 8.10667 60.2933 8.10667V23.8933C60.2933 27.0222 59.8667 29.9378 59.0133 32.64C58.3022 35.3422 57.2356 37.9733 55.8133 40.5333C54.5333 42.9511 52.9689 45.2267 51.12 47.36C49.4133 49.4933 47.4222 51.5556 45.1467 53.5467C43.0133 55.3956 40.7378 57.1733 38.32 58.88C36.0444 60.4444 33.6978 61.9378 31.28 63.36L30.4267 64L29.36 63.36C26.9422 61.9378 24.5244 60.4444 22.1067 58.88C19.6889 57.1733 17.4133 55.3956 15.28 53.5467C13.1467 51.5556 11.1556 49.4933 9.30667 47.36C7.45778 45.2267 5.82222 42.9511 4.4 40.5333C3.12 37.9733 2.12444 35.3422 1.41333 32.64C0.702222 29.7956 0.346667 26.9511 0.346667 24.1067V7.89333C1.91111 7.89333 3.54667 7.89333 5.25333 7.89333C6.96 7.75111 8.59556 7.53778 10.16 7.25333C11.7244 6.82666 13.2178 6.32889 14.64 5.76C16.2044 5.04889 17.6978 4.26667 19.12 3.41333C20.8267 2.27555 22.6044 1.42222 24.4533 0.853333C26.3022 0.284444 28.2222 0 30.2133 0ZM56.24 11.9467C53.2533 11.8044 50.2667 11.3067 47.28 10.4533C44.4356 9.6 41.7333 8.32 39.1733 6.61333C37.8933 5.76 36.4711 5.12 34.9067 4.69333C33.3422 4.26667 31.7778 4.05333 30.2133 4.05333C28.6489 4.05333 27.0844 4.26667 25.52 4.69333C24.0978 5.12 22.7467 5.76 21.4667 6.61333C18.9067 8.32 16.1333 9.6 13.1467 10.4533C10.3022 11.3067 7.31556 11.8044 4.18667 11.9467V24.1067C4.18667 26.6667 4.54222 29.1556 5.25333 31.5733C5.96444 33.9911 6.88889 36.3378 8.02667 38.6133C9.30667 40.8889 10.8 43.0222 12.5067 45.0133C14.2133 46.8622 15.9911 48.64 17.84 50.3467C19.6889 52.0533 21.68 53.6889 23.8133 55.2533C25.9467 56.6756 28.08 58.0267 30.2133 59.3067C32.4889 58.0267 34.6222 56.6756 36.6133 55.2533C38.7467 53.8311 40.7378 52.2667 42.5867 50.56C44.5778 48.7111 46.3556 46.8622 47.92 45.0133C49.6267 43.0222 51.12 40.8889 52.4 38.6133C53.68 36.3378 54.6044 33.9911 55.1733 31.5733C55.8844 29.1556 56.24 26.6667 56.24 24.1067V11.9467ZM45.1467 18.7733L43.44 17.28L41.7333 17.4933L24.4533 37.9733L18.48 29.6533L16.7733 29.2267L15.0667 30.72L14.64 32.2133L22.32 43.0933L23.1733 43.52L25.0933 43.7333L25.9467 43.3067L45.36 20.48L45.1467 18.7733Z" fill="#3794FF"/>
</svg>
